<mxfile host="app.diagrams.net" modified="2023-03-21T13:56:25.100Z" agent="5.0 (Windows)" etag="GwyRSvBlsnpPBm7Xl-Gk" version="21.0.8" type="github">
  <diagram id="C5RBs43oDa-KdzZeNtuy" name="Page-1">
    <mxGraphModel dx="1434" dy="739" grid="1" gridSize="10" guides="1" tooltips="1" connect="1" arrows="1" fold="1" page="1" pageScale="1" pageWidth="827" pageHeight="1169" math="0" shadow="0">
      <root>
        <mxCell id="WIyWlLk6GJQsqaUBKTNV-0" />
        <mxCell id="WIyWlLk6GJQsqaUBKTNV-1" parent="WIyWlLk6GJQsqaUBKTNV-0" />
        <mxCell id="gYQAzpaJOHMTuUD46-0--18" style="edgeStyle=orthogonalEdgeStyle;rounded=0;orthogonalLoop=1;jettySize=auto;html=1;exitX=0.5;exitY=1;exitDx=0;exitDy=0;entryX=0.5;entryY=0;entryDx=0;entryDy=0;" edge="1" parent="WIyWlLk6GJQsqaUBKTNV-1" source="gYQAzpaJOHMTuUD46-0--0" target="gYQAzpaJOHMTuUD46-0--1">
          <mxGeometry relative="1" as="geometry" />
        </mxCell>
        <mxCell id="gYQAzpaJOHMTuUD46-0--0" value="start" style="ellipse;whiteSpace=wrap;html=1;" vertex="1" parent="WIyWlLk6GJQsqaUBKTNV-1">
          <mxGeometry x="354" y="10" width="120" height="80" as="geometry" />
        </mxCell>
        <mxCell id="gYQAzpaJOHMTuUD46-0--19" style="edgeStyle=orthogonalEdgeStyle;rounded=0;orthogonalLoop=1;jettySize=auto;html=1;exitX=0.5;exitY=1;exitDx=0;exitDy=0;entryX=0.5;entryY=0;entryDx=0;entryDy=0;" edge="1" parent="WIyWlLk6GJQsqaUBKTNV-1" source="gYQAzpaJOHMTuUD46-0--1" target="gYQAzpaJOHMTuUD46-0--2">
          <mxGeometry relative="1" as="geometry" />
        </mxCell>
        <mxCell id="gYQAzpaJOHMTuUD46-0--1" value="podaj a,b" style="shape=parallelogram;perimeter=parallelogramPerimeter;whiteSpace=wrap;html=1;fixedSize=1;" vertex="1" parent="WIyWlLk6GJQsqaUBKTNV-1">
          <mxGeometry x="354" y="120" width="120" height="60" as="geometry" />
        </mxCell>
        <mxCell id="gYQAzpaJOHMTuUD46-0--3" style="edgeStyle=orthogonalEdgeStyle;rounded=0;orthogonalLoop=1;jettySize=auto;html=1;exitX=0;exitY=0.5;exitDx=0;exitDy=0;entryX=0;entryY=0.5;entryDx=0;entryDy=0;" edge="1" parent="WIyWlLk6GJQsqaUBKTNV-1" source="gYQAzpaJOHMTuUD46-0--2" target="gYQAzpaJOHMTuUD46-0--1">
          <mxGeometry relative="1" as="geometry">
            <Array as="points">
              <mxPoint x="210" y="250" />
              <mxPoint x="210" y="150" />
            </Array>
          </mxGeometry>
        </mxCell>
        <mxCell id="gYQAzpaJOHMTuUD46-0--9" style="edgeStyle=orthogonalEdgeStyle;rounded=0;orthogonalLoop=1;jettySize=auto;html=1;exitX=1;exitY=0.5;exitDx=0;exitDy=0;entryX=0.5;entryY=0;entryDx=0;entryDy=0;" edge="1" parent="WIyWlLk6GJQsqaUBKTNV-1" source="gYQAzpaJOHMTuUD46-0--2" target="gYQAzpaJOHMTuUD46-0--4">
          <mxGeometry relative="1" as="geometry" />
        </mxCell>
        <mxCell id="gYQAzpaJOHMTuUD46-0--2" value="a&amp;gt;0 &amp;amp;&amp;amp; b&amp;gt;0" style="rhombus;whiteSpace=wrap;html=1;" vertex="1" parent="WIyWlLk6GJQsqaUBKTNV-1">
          <mxGeometry x="374" y="210" width="80" height="80" as="geometry" />
        </mxCell>
        <mxCell id="gYQAzpaJOHMTuUD46-0--10" style="edgeStyle=orthogonalEdgeStyle;rounded=0;orthogonalLoop=1;jettySize=auto;html=1;exitX=1;exitY=0.5;exitDx=0;exitDy=0;entryX=0.608;entryY=0.017;entryDx=0;entryDy=0;entryPerimeter=0;" edge="1" parent="WIyWlLk6GJQsqaUBKTNV-1" source="gYQAzpaJOHMTuUD46-0--4" target="gYQAzpaJOHMTuUD46-0--6">
          <mxGeometry relative="1" as="geometry" />
        </mxCell>
        <mxCell id="gYQAzpaJOHMTuUD46-0--11" style="edgeStyle=orthogonalEdgeStyle;rounded=0;orthogonalLoop=1;jettySize=auto;html=1;exitX=0;exitY=0.5;exitDx=0;exitDy=0;entryX=0.5;entryY=0;entryDx=0;entryDy=0;" edge="1" parent="WIyWlLk6GJQsqaUBKTNV-1" source="gYQAzpaJOHMTuUD46-0--4" target="gYQAzpaJOHMTuUD46-0--5">
          <mxGeometry relative="1" as="geometry" />
        </mxCell>
        <mxCell id="gYQAzpaJOHMTuUD46-0--4" value="&lt;div&gt;a!=b&lt;/div&gt;" style="rhombus;whiteSpace=wrap;html=1;" vertex="1" parent="WIyWlLk6GJQsqaUBKTNV-1">
          <mxGeometry x="474" y="290" width="80" height="80" as="geometry" />
        </mxCell>
        <mxCell id="gYQAzpaJOHMTuUD46-0--12" style="edgeStyle=orthogonalEdgeStyle;rounded=0;orthogonalLoop=1;jettySize=auto;html=1;exitX=1;exitY=0.5;exitDx=0;exitDy=0;entryX=0.5;entryY=0;entryDx=0;entryDy=0;" edge="1" parent="WIyWlLk6GJQsqaUBKTNV-1" source="gYQAzpaJOHMTuUD46-0--5" target="gYQAzpaJOHMTuUD46-0--7">
          <mxGeometry relative="1" as="geometry" />
        </mxCell>
        <mxCell id="gYQAzpaJOHMTuUD46-0--13" style="edgeStyle=orthogonalEdgeStyle;rounded=0;orthogonalLoop=1;jettySize=auto;html=1;exitX=0;exitY=0.5;exitDx=0;exitDy=0;entryX=0.5;entryY=0;entryDx=0;entryDy=0;" edge="1" parent="WIyWlLk6GJQsqaUBKTNV-1" source="gYQAzpaJOHMTuUD46-0--5" target="gYQAzpaJOHMTuUD46-0--8">
          <mxGeometry relative="1" as="geometry" />
        </mxCell>
        <mxCell id="gYQAzpaJOHMTuUD46-0--5" value="a&amp;gt;b" style="rhombus;whiteSpace=wrap;html=1;" vertex="1" parent="WIyWlLk6GJQsqaUBKTNV-1">
          <mxGeometry x="394" y="370" width="80" height="80" as="geometry" />
        </mxCell>
        <mxCell id="gYQAzpaJOHMTuUD46-0--6" value="wypisz a" style="shape=parallelogram;perimeter=parallelogramPerimeter;whiteSpace=wrap;html=1;fixedSize=1;" vertex="1" parent="WIyWlLk6GJQsqaUBKTNV-1">
          <mxGeometry x="554" y="380" width="120" height="60" as="geometry" />
        </mxCell>
        <mxCell id="gYQAzpaJOHMTuUD46-0--17" style="edgeStyle=orthogonalEdgeStyle;rounded=0;orthogonalLoop=1;jettySize=auto;html=1;" edge="1" parent="WIyWlLk6GJQsqaUBKTNV-1" source="gYQAzpaJOHMTuUD46-0--7">
          <mxGeometry relative="1" as="geometry">
            <mxPoint x="510" y="290" as="targetPoint" />
            <Array as="points">
              <mxPoint x="720" y="500" />
              <mxPoint x="720" y="270" />
            </Array>
          </mxGeometry>
        </mxCell>
        <mxCell id="gYQAzpaJOHMTuUD46-0--7" value="a = a-b" style="rounded=0;whiteSpace=wrap;html=1;" vertex="1" parent="WIyWlLk6GJQsqaUBKTNV-1">
          <mxGeometry x="474" y="470" width="120" height="60" as="geometry" />
        </mxCell>
        <mxCell id="gYQAzpaJOHMTuUD46-0--16" style="edgeStyle=orthogonalEdgeStyle;rounded=0;orthogonalLoop=1;jettySize=auto;html=1;entryX=0.5;entryY=0;entryDx=0;entryDy=0;" edge="1" parent="WIyWlLk6GJQsqaUBKTNV-1" source="gYQAzpaJOHMTuUD46-0--8" target="gYQAzpaJOHMTuUD46-0--4">
          <mxGeometry relative="1" as="geometry">
            <Array as="points">
              <mxPoint x="240" y="500" />
              <mxPoint x="240" y="270" />
              <mxPoint x="514" y="270" />
            </Array>
          </mxGeometry>
        </mxCell>
        <mxCell id="gYQAzpaJOHMTuUD46-0--8" value="b = b-a" style="rounded=0;whiteSpace=wrap;html=1;" vertex="1" parent="WIyWlLk6GJQsqaUBKTNV-1">
          <mxGeometry x="274" y="470" width="120" height="60" as="geometry" />
        </mxCell>
      </root>
    </mxGraphModel>
  </diagram>
</mxfile>
